<?xml version="1.0" encoding="utf-8"?>
<!-- Generator: Adobe Illustrator 27.1.1, SVG Export Plug-In . SVG Version: 6.00 Build 0)  -->
<svg version="1.1" id="Art_3.0" xmlns="http://www.w3.org/2000/svg" xmlns:xlink="http://www.w3.org/1999/xlink" x="0px" y="0px"
	 viewBox="0 0 48 48" style="enable-background:new 0 0 48 48;" xml:space="preserve">
<style type="text/css">
	.st0{fill-opacity:0;}
</style>
<path d="M24,14.5c-5.23828,0-9.5,4.26172-9.5,9.5s4.26172,9.5,9.5,9.5s9.5-4.26172,9.5-9.5S29.23828,14.5,24,14.5z M26.5,32.12354
	V26.5h2.0921c0.20709,0.58057,0.7569,1,1.4079,1c0.82715,0,1.5-0.67285,1.5-1.5s-0.67285-1.5-1.5-1.5
	c-0.651,0-1.20081,0.41943-1.4079,1H25.5v6.85938C25.01215,32.44678,24.51257,32.5,24,32.5c-0.16876,0-0.33362-0.01562-0.5-0.02539
	V19.5h-2.0921c-0.20709-0.58057-0.7569-1-1.4079-1c-0.82715,0-1.5,0.67285-1.5,1.5s0.67285,1.5,1.5,1.5
	c0.651,0,1.20081-0.41943,1.4079-1H22.5v11.85938c-0.34003-0.06104-0.67517-0.13574-1-0.23584V24.5h-2.0921
	c-0.20709-0.58057-0.7569-1-1.4079-1c-0.82715,0-1.5,0.67285-1.5,1.5s0.67285,1.5,1.5,1.5c0.651,0,1.20081-0.41943,1.4079-1H20.5
	v6.2373c-2.94397-1.3374-5-4.29883-5-7.7373c0-4.68701,3.81299-8.5,8.5-8.5c0.51257,0,1.01215,0.05322,1.5,0.14062V22.5h2.0921
	c0.20709,0.58057,0.7569,1,1.4079,1c0.82715,0,1.5-0.67285,1.5-1.5s-0.67285-1.5-1.5-1.5c-0.651,0-1.20081,0.41943-1.4079,1H26.5
	v-5.62354c3.47052,1.07031,6,4.30664,6,8.12354S29.97052,31.05322,26.5,32.12354z M30,25.5c0.27588,0,0.5,0.22412,0.5,0.5
	s-0.22412,0.5-0.5,0.5s-0.5-0.22412-0.5-0.5S29.72412,25.5,30,25.5z M20,20.5c-0.27588,0-0.5-0.22412-0.5-0.5s0.22412-0.5,0.5-0.5
	s0.5,0.22412,0.5,0.5S20.27588,20.5,20,20.5z M18,25.5c-0.27588,0-0.5-0.22412-0.5-0.5s0.22412-0.5,0.5-0.5s0.5,0.22412,0.5,0.5
	S18.27588,25.5,18,25.5z M29,21.5c0.27588,0,0.5,0.22412,0.5,0.5s-0.22412,0.5-0.5,0.5s-0.5-0.22412-0.5-0.5S28.72412,21.5,29,21.5z
	 M36.4126,25.38525C36.47217,24.87597,36.5,24.43066,36.5,24c0-0.3916-0.02344-0.80615-0.0708-1.26074l4.41504-4.56445
	l-3.38037-5.85547l-6.06006,1.62402c-0.73047-0.54053-1.49707-0.99268-2.28418-1.34766L27.37695,6.5h-6.76074l-1.62012,6.04688
	c-0.79248,0.34814-1.5625,0.7915-2.29492,1.32129l-6.16846-1.54297l-3.38037,5.85547l4.43506,4.43408
	C11.52783,23.12403,11.5,23.56934,11.5,24c0,0.3916,0.02344,0.80615,0.0708,1.26074l-4.41504,4.56445l3.38037,5.85547
	l6.06006-1.62402c0.729,0.53955,1.49561,0.9917,2.28418,1.34766L20.62304,41.5h6.76074l1.62012-6.04688
	c0.79248-0.34814,1.5625-0.7915,2.29492-1.32129l6.16846,1.54297l3.38037-5.85547
	C40.84766,29.81933,36.4126,25.38525,36.4126,25.38525z M36.97803,34.52148l-5.896-1.47461l-0.19043,0.14307
	c-0.79199,0.59521-1.63281,1.07861-2.49902,1.43701l-0.22754,0.09424L26.61621,40.5h-5.23926l-1.66504-5.8252l-0.21924-0.09375
	c-0.86084-0.36719-1.69727-0.86084-2.48584-1.4668l-0.1958-0.15039l-5.79248,1.55176l-2.61963-4.53711l4.22021-4.36279
	l-0.02832-0.23633c-0.06104-0.50928-0.09082-0.96045-0.09082-1.37939c0-0.4541,0.03467-0.93115,0.10938-1.50098l0.03223-0.24414
	l-4.23926-4.23926l2.61963-4.53711l5.896,1.47461l0.19043-0.14307c0.79199-0.59521,1.63281-1.07861,2.49902-1.43701l0.22754-0.09424
	L21.38379,7.5h5.23926l1.66553,5.82568l0.21924,0.09326c0.8584,0.36572,1.69482,0.85938,2.48535,1.4668l0.1958,0.15039
	l5.79248-1.55176l2.61963,4.53711l-4.22021,4.36279l0.02832,0.23633c0.06104,0.50928,0.09082,0.96045,0.09082,1.37939
	c0,0.4541-0.03467,0.93115-0.10938,1.50098l-0.03223,0.24414l4.23926,4.23926
	C39.59766,29.98437,36.97803,34.52148,36.97803,34.52148z"/>
<rect class="st0" width="48" height="48"/>
</svg>
