<?xml version="1.0" encoding="UTF-8"?><svg id="LOGOS" xmlns="http://www.w3.org/2000/svg" viewBox="0 0 1250 703"><defs><style>.cls-1{fill:red;}</style></defs><g id="Layer_4"><g><rect class="cls-1" x="652.88448" y="264.31189" width="15.90097" height="174.77227"/><polygon class="cls-1" points="871.85475 264.31189 922.58085 264.31189 922.58085 278.87954 905.32674 278.87954 905.32674 439.08416 889.3597 439.08416 889.3597 278.87954 871.85475 278.87954 871.85475 264.31189"/><polygon class="cls-1" points="638.34981 264.31189 638.34981 439.08416 621.69635 439.08416 597.88778 332.94555 597.88778 439.08416 582.26401 439.08416 582.26401 264.31189 596.63366 264.31189 622.72607 380.09406 622.72607 264.31189 638.34981 264.31189"/><polygon class="cls-1" points="292.60726 264.31189 292.60726 439.08416 276.9835 439.08416 276.9835 289.27559 257.70297 439.08416 244.69307 439.08416 225.72277 289.27559 225.72277 439.08416 210 439.08416 210 264.31189 236.60066 264.31189 251.83498 369.67822 266.19802 264.31189 292.60726 264.31189"/><path class="cls-1" d="m486.25743,439.13696c33.08662-45.01029,23.42055-108.32034-21.58975-141.40695-45.01029-33.08661-108.32034-23.42055-141.40695,21.58974-26.20022,35.6422-26.20022,84.17501,0,119.81721h21.0363c-33.09019-33.41413-32.82758-87.32655.58656-120.41674,33.41414-33.0902,87.32655-32.82759,120.41674.58654,32.86247,33.1842,32.86247,86.64601,0,119.8302h20.95709Z"/><path class="cls-1" d="m980.13861,439.08416h-15.54458l-4.11222-39.36634h-23.26074l-3.76237,39.36634h-15.84159l17.88124-174.75907h24.25085l20.38942,174.75907Zm-21.12209-55.14851l-10.56105-96.36964-9.75575,96.36964h20.33004-.01324Z"/><path class="cls-1" d="m790.22441,416.88614c1.00411,5.48639-2.62945,10.748-8.11586,11.75214s-10.74803-2.62947-11.75214-8.11586c-.22002-1.2021-.22002-2.43415,0-3.63628v-132.0132c-1.00411-5.4864,2.62945-10.74801,8.11586-11.75214,5.48642-1.00413,10.74803,2.62946,11.75214,8.11586.22002,1.20211.22002,2.43417,0,3.63628l-.03958,6.31023v32.95049h15.98678v-32.73927c-.1122-21.78218-8.63365-32.17161-26.40264-32.17161-15.84159,0-26.13861,11.22112-26.13861,28.47525v122.89766c0,22.39605,8.68648,33.31354,26.51484,33.31354s26.0528-10.71948,26.0528-33.77558v-63.58414h-29.40595v15.30693h13.36635v49.23433l.06602,5.79537Z"/><path class="cls-1" d="m855.72938,412.70133v-45.43895l-36.41583-27.22112v-50.78548c0-19.9604,8.9835-30.16501,26.56767-30.16501,17.86799,0,25.99342,10.12541,26.09243,32.56766l.04623,6.9637v25.76897h-16.29049v-34.56106l-.03299-4.95049c1.03871-5.43172-2.52258-10.67702-7.95426-11.7157-5.43173-1.03869-10.67702,2.52256-11.71573,7.95428-.23759,1.24255-.23759,2.51887,0,3.76142v47.56435l35.98682,27.18811v52.54786c0,20.54125-9.14853,31.54455-26.23761,31.54455-17.31354,0-26.31683-10.36963-26.40264-30.40923v-41.11551h16.66003v44.69307c-1.03871,5.43173,2.52258,10.67702,7.95426,11.7157,5.43173,1.03868,10.67702-2.52256,11.71573-7.95429.23759-1.24253.23759-2.51886,0-3.76142l.02639-4.19141Z"/><path class="cls-1" d="m572.60724,439.08416h-15.93398c-2.20578-6.01458-3.30164-12.37954-3.23433-18.78548l-.13202-8.93729-.0462-4.54125v-34.1188c.65409-5.06154-2.91886-9.69496-7.98037-10.34905-.46824-.06051-.9404-.08504-1.41237-.0734h-11.37293v76.80528h-15.59735v-174.75907h20.35643c22.86469,0,31.68316,8.36304,31.68316,30.71947v32.82508c0,14.70627-2.45546,20.87129-13.967,25.11551.16503.0462.32343.11881.48186.16501,10.87128,3.16831,13.30692,7.26073,13.43234,21.08251l.0528,6.34983v31.89438c-.37467,9.01706.86827,18.02833,3.66997,26.60727Zm-40.11221-161.00989v69.21452h5.58416c7.10586,1.24632,13.87663-3.50378,15.12297-10.60964.24049-1.37119.26026-2.772.05854-4.14943v-35.64356c0-14.34983-3.30033-18.83828-13.94059-18.83828h-6.82508v.0264Z"/><path class="cls-1" d="m1040,439.08416h-15.9472c-2.20648-6.0142-3.30023-12.37971-3.22771-18.78548l-.13199-8.93729-.05942-4.53466v-34.1254c.65401-5.06155-2.91901-9.69491-7.98055-10.34891-.46597-.0602-.93587-.08479-1.40557-.07354h-11.35974v76.80528h-15.604v-174.75907h20.36303c22.86467,0,31.68319,8.36304,31.68319,30.71947v32.82508c0,14.70627-2.46205,20.87129-13.94719,25.11551.15183.0462.31021.11881.48184.16501,10.86471,3.16831,13.30692,7.26073,13.43237,21.08251l.03958,6.34983v31.89438c-.38021,9.01681.86054,18.02871,3.66337,26.60727Zm-40.11223-161.00989v69.21452h5.60395c7.10974,1.22388,13.86551-3.54758,15.08938-10.65734.23341-1.35594.25114-2.74025.05252-4.10173v-35.64356c0-14.34983-3.30033-18.83828-13.94059-18.83828h-6.80527v.0264Z"/><polygon class="cls-1" points="739.1551 264.31189 739.1551 439.08416 722.50822 439.08416 698.69967 332.94555 698.69967 439.08416 683.07588 439.08416 683.07588 264.31189 697.44553 264.31189 723.53136 380.09406 723.53136 264.31189 739.1551 264.31189"/></g></g></svg>