<?xml version="1.0" encoding="UTF-8"?><svg id="LOGOS" xmlns="http://www.w3.org/2000/svg" viewBox="0 0 1250 703"><defs><style>.cls-1{fill:#e2e600;fill-rule:evenodd;}</style></defs><g id="Layer_4"><g><path class="cls-1" d="m1055.50104,274.44452c-16.56502,0-30.01536,13.45309-30.01536,30.02322s13.45033,30.02322,30.01536,30.02322,30.01483-13.45322,30.01483-30.02322-13.45033-30.02322-30.01483-30.02322Zm0,22.35827c4.24154,0,7.65145,3.43376,7.65145,7.66495s-3.40991,7.66482-7.65145,7.66482c-4.24206,0-7.67871-3.43376-7.67871-7.66482s3.43665-7.66495,7.67871-7.66495Z"/><path d="m659.25582,311.35316v63.16099c0,13.84441,6.695,20.76653,20.10123,20.76653s20.10197-6.92211,20.10197-20.76653v-63.16099h39.5678v70.80873c0,15.15932-4.9873,26.52484-14.97814,34.09693-9.9746,7.58722-24.87747,11.36571-44.69163,11.36571s-34.71629-3.77848-44.69163-11.36571c-9.99084-7.57209-14.97814-18.93762-14.97814-34.09693v-70.80873h39.56854Zm286.24222,62.72282c0,17.04837,8.02559,25.57265,24.0465,25.57265,8.59974,0,15.08367-3.49122,19.45181-10.48898h38.25345c-7.72375,25.6483-27.02353,38.46488-57.91706,38.46488-9.47646,0-18.13672-1.42062-26.01102-4.26205-7.8743-2.84143-14.61505-6.87691-20.22226-12.1214-5.60721-5.24449-9.94509-11.51681-12.99813-18.80183-3.0678-7.28483-4.59469-15.44639-4.59469-24.4845,0-9.32536,1.45088-17.72861,4.36813-25.24019,2.91725-7.49664,7.07359-13.87467,12.46899-19.11916,5.38065-5.24449,11.9096-9.2951,19.55734-12.13653s16.27773-4.26205,25.88999-4.26205c9.47646,0,18.00093,1.42062,25.57339,4.26205,7.58722,2.84143,13.99515,6.95237,19.24001,12.34815,5.24412,5.39559,9.24917,11.98524,12.03063,19.78408,2.76597,7.79884,4.14083,16.57994,4.14083,26.34366v4.1412h-83.27791Zm-627.87759-62.72282h39.76484v112.13017h-39.76484v-12.46899c-8.46395,10.64027-19.89017,15.9604-34.32368,15.9604-8.16138,0-15.65856-1.49626-22.50485-4.48898-6.84629-2.9774-12.83208-7.16399-17.92492-12.55958-5.10907-5.39578-9.06836-11.72843-11.91034-19.01344-2.84124-7.28483-4.26186-15.23478-4.26186-23.83452,0-8.01046,1.3756-15.61281,4.14157-22.83713,2.78073-7.20937,6.63448-13.51195,11.59227-18.90754,4.95704-5.38065,10.85133-9.6427,17.69835-12.78651,6.84629-3.1285,14.43351-4.70041,22.73141-4.70041,13.99515,0,25.57265,4.88177,34.76204,14.6455v-11.13896Zm530.39273-33.65876h39.7951v145.78893h-39.7951v-12.46899c-8.44845,10.64027-19.87467,15.9604-34.30818,15.9604-8.16138,0-15.65783-1.52652-22.50485-4.59469-6.86178-3.05304-12.83134-7.28502-17.92492-12.68061-5.10833-5.38046-9.06836-11.72843-11.9096-19.01326-2.84198-7.28502-4.2626-15.14419-4.2626-23.60795,0-8.01046,1.34535-15.61281,4.0353-22.83713,2.70545-7.20937,6.52969-13.51195,11.47198-18.90754,4.95704-5.38065,10.89709-9.6427,17.81938-12.78651,6.92156-3.1285,14.53904-4.70041,22.83694-4.70041,13.99515,0,25.57265,4.88177,34.74655,14.6455v-44.79772Zm-643.46014,0v145.78893h-39.55304v-145.78893h39.55304Zm301.59821,66.48617v79.30275h-39.5678v-79.30275h39.5678Zm-106.2809.16623l31.84479,37.78483v41.35169h-39.55304v-79.13652h-13.11842v-32.99365h13.11842v-33.65876h39.55304v33.65876h22.52035v32.99365h-54.36514Zm147.87447,0l31.84553,37.78483v41.35169h-39.56854v-79.13652h-13.10366v-32.99365h13.10366v-33.65876h39.56854v33.65876h22.50411v32.99365h-54.34964Zm-279.97009,22.73141c0,3.65745.66492,7.04296,1.98001,10.17165,1.29959,3.1285,3.0833,5.86421,5.35039,8.19163,2.25159,2.34273,4.95704,4.15633,8.08536,5.47124,3.12906,1.31509,6.51419,1.96488,10.15689,1.96488,3.50617,0,6.81603-.6498,9.94509-1.96488,3.14382-1.3149,5.83377-3.1285,8.0861-5.47124,2.26709-2.32742,4.08032-5.01774,5.47068-8.08592,1.39036-3.05304,2.07079-6.33265,2.07079-9.83918,0-3.49122-.68042-6.80127-2.07079-9.9449-1.39036-3.1285-3.20359-5.86421-5.47068-8.19182-2.25233-2.32742-4.94229-4.15633-8.0861-5.45611-3.12906-1.3149-6.43892-1.97983-9.94509-1.97983-3.64269,0-7.02783.66492-10.15689,1.97983-3.12832,1.29978-5.83377,3.12869-8.08536,5.45611-2.26709,2.3276-4.0508,4.98767-5.35039,7.9802-1.31509,2.99253-1.98001,6.22693-1.98001,9.71834Zm530.40823,0c0,3.65745.66492,7.04296,1.96452,10.17165,1.31509,3.1285,3.0988,5.86421,5.36589,8.19163,2.25159,2.34273,4.95704,4.15633,8.08536,5.47124,3.12906,1.31509,6.51419,1.96488,10.15689,1.96488,3.50617,0,6.81677-.6498,9.94509-1.96488,3.14382-1.3149,5.83377-3.1285,8.0861-5.47124,2.26709-2.32742,4.08032-5.01774,5.47068-8.08592,1.3756-3.05304,2.07079-6.33265,2.07079-9.83918,0-3.49122-.69518-6.80127-2.07079-9.9449-1.39036-3.1285-3.20359-5.86421-5.47068-8.19182-2.25233-2.32742-4.94229-4.15633-8.0861-5.45611-3.12832-1.3149-6.43892-1.97983-9.94509-1.97983-3.49141,0-6.80127.66492-9.94509,1.97983-3.12832,1.29978-5.81901,3.12869-8.0861,5.45611-2.25159,2.3276-4.08032,4.98767-5.45592,7.9802-1.39036,2.99253-2.08555,6.22693-2.08555,9.71834Zm193.65463-15.94527c-1.31509-5.54688-4.00504-9.99029-8.0861-13.33041-4.08032-3.35543-9.0381-5.03306-14.85711-5.03306-6.12085,0-11.10815,1.60217-14.9774,4.80631-3.8545,3.20415-6.30239,7.7232-7.31564,13.55715h45.23626Zm-505.78757-76.06835c11.93986,0,21.64288,9.6879,21.64288,21.62794s-9.70303,21.64325-21.64288,21.64325-21.64288-9.70321-21.64288-21.64325,9.70303-21.62794,21.64288-21.62794Z"/></g></g></svg>