<?xml version="1.0" encoding="UTF-8"?><svg id="LOGOS" xmlns="http://www.w3.org/2000/svg" viewBox="0 0 1250 703"><defs><style>.cls-1{fill:#5045e5;}</style></defs><g id="Layer_4"><g><path class="cls-1" d="m283.35949,440.35216c21.6-3.50945,39.41508-13.02193,53.90714-28.81521,9.96905-10.89815,16.06113-21.98045,20.86112-37.77373,2.30792-7.48078,2.49207-9.60456,2.49207-23.4582.09283-16.80882-1.01509-22.62725-6.83018-36.48059-5.72302-13.76103-19.10792-30.56985-30.18413-37.86595l-3.96981-2.67835-16.1532,16.16233c-10.43093,10.43619-16.43017,17.0858-17.07697,19.02528-1.93811,5.91082-.5532,8.21973,13.47698,22.4425,7.19999,7.38871,13.66112,14.4076,14.30715,15.60836,2.86189,5.63323,2.49284,6.09511-39.8762,48.48698l-39.78375,39.71259,6.18453,2.03171c13.9381,4.7102,28.3381,5.91097,42.64525,3.60228Zm-29.907-49.77982c1.0157-5.35699-.73842-8.0355-13.56897-20.87253-6.92302-6.83475-13.19977-13.57666-13.93826-14.96156-1.66151-3.1404-1.66151-6.64984,0-9.79023.73849-1.38491,18.64588-19.76385,39.69198-40.82098,21.1381-21.05714,38.39921-38.51243,38.39921-38.88185,0-.64649-7.84603-3.04775-15.96904-4.89487-9.32301-2.12418-28.61508-1.93947-38.21484.36943-18.73817,4.52544-33.59945,12.92982-46.1531,26.22912-15.04588,15.88519-22.61501,32.41688-25.19958,54.67462-3.32302,28.72313,10.15371,60.58589,33.50712,79.33389l7.56913,6.09512,16.70746-16.90121c11.81516-11.91324,16.89199-17.63931,17.16889-19.57894Z"/><path d="m807.89922,418.66314h-17.70549v-98.49963c9.57414-5.01337,20.19529-7.66889,30.99073-7.7478,9.50946-.21367,18.77765,3.02412,26.10552,9.12022,7.51731,6.5739,11.49094,16.07665,11.49094,27.48082.17347,9.3078-2.91744,18.3797-8.731,25.62536-6.18721,7.36817-15.37174,11.50691-24.96033,11.24743-6.17955-.31276-12.14226-2.38935-17.19037-5.98555v38.75915Zm11.45976-91.42862c-3.97363.00434-7.8917.94075-11.44223,2.73459v33.32437c3.1777,4.96131,8.65036,7.95484,14.52019,7.94343.43832,0,.87738-.01598,1.31721-.05022,4.53671-.08447,8.76677-2.31782,11.41332-6.02359,3.3017-4.66988,4.99325-10.29854,4.8167-16.02536.21689-5.70476-1.67402-11.28928-5.30901-15.67647-3.80318-4.16104-9.23022-6.43685-14.84744-6.22676h-.46874Zm-65.51376,59.07201c-9.68061-.02663-19.09039-3.20964-26.81698-9.07115l6.49618-12.72441c4.21253,4.12809,12.5022,8.39847,19.08964,8.39847,2.15192.06848,4.27494-.50831,6.10042-1.65656,1.99825-1.42219,3.12063-3.78415,2.96614-6.24045,0-3.85339-5.17816-6.91312-11.17285-10.46442-4.46594-2.42282-8.64578-5.34254-12.46342-8.70361-4.12353-3.97134-6.12782-8.19987-6.12782-12.945.00226-2.68284.58514-5.33303,1.70757-7.76689,1.15506-2.50958,2.80632-4.75671,4.85171-6.60479,4.86239-4.21293,11.10818-6.45854,17.52442-6.30034.27623,0,.55622-.00882.83245-.00882,8.2798.01362,16.31983,2.79454,22.85479,7.90516l-6.37136,12.2403c-.97091-1.09453-7.3324-6.65631-14.2021-6.65631-2.1139-.05844-4.19737.51714-5.98483,1.65337-1.58351,1.00786-2.54153,2.76259-2.53694,4.64689,0,4.50734,5.24741,7.48566,11.32275,10.93499,4.34042,2.23411,8.38709,5.00469,12.04414,8.24629,3.73317,3.36106,5.86913,8.15802,5.87447,13.19543.20464,6.14153-2.39395,12.04032-7.05467,16.01622-4.60446,3.86481-11.14928,5.90565-18.9337,5.90565Zm-320.75975-.08522c-9.66618,0-19.07215-3.15333-26.80404-8.98592l6.49689-12.72441c4.21256,4.12809,12.50221,8.39847,19.08965,8.39847,2.15117.06848,4.27418-.50831,6.09894-1.65656,1.99744-1.42219,3.1206-3.78415,2.96612-6.24045,0-3.85339-5.18199-6.91312-11.18046-10.46442-4.46823-2.42206-8.65186-5.34102-12.47178-8.70132-4.12656-3.97134-6.13316-8.19911-6.13316-12.94432.00228-2.69669.58592-5.36112,1.70984-7.80958,1.15434-2.52038,2.80633-4.77808,4.8563-6.63568,4.85554-4.22047,11.10057-6.4717,17.51681-6.31495.29219,0,.57678-.01035.86136-.01035,8.27141.01294,16.30311,2.79424,22.82739,7.90516l-6.26709,12.2476c-1.51805-1.50065-3.22864-2.79173-5.08535-3.83939-2.7599-1.70283-5.90486-2.67211-9.14038-2.81692-2.11387-.05768-4.19656.51843-5.98402,1.65481-1.58275,1.00741-2.54078,2.7616-2.53697,4.64545,0,4.50689,5.24744,7.48748,11.32278,10.93682,4.33961,2.23411,8.38552,5.00469,12.0426,8.24628,3.73314,3.36031,5.8691,8.15726,5.87519,13.19543.20392,6.14153-2.3939,12.03956-7.05388,16.01623-4.59761,3.86253-11.14319,5.90412-18.92911,5.90412l-.07762-.00608Zm538.22293-.2085c-9.61065-.00075-18.818-3.89752-25.53705-10.80912-6.71911-6.9116-10.38836-16.2544-10.1692-25.91603,0-21.02038,16.22625-36.87194,37.7456-36.87194,8.40073.06103,16.56558,2.82802,23.29229,7.8948l-6.10274,12.83011c-4.60364-3.85385-10.38679-6.01658-16.37539-6.13255-5.34936-.02922-10.48571,2.11943-14.2219,5.95608-4.17758,4.44525-6.40712,10.38285-6.20927,16.49166-.09893,5.86151,2.02409,11.54267,5.94291,15.8861,3.69816,4.02536,8.91063,6.30666,14.35891,6.29144,7.09954-.1362,13.94039-2.73405,19.34305-7.35447l5.56248,12.22143c-2.59482,2.43424-5.5929,4.38834-8.87254,5.77019-5.86686,2.54535-12.20548,3.82067-18.59733,3.74077l-.15983.00152Zm68.59096,0c-11.32275,0-20.9334-3.43336-27.77425-9.92948-6.89409-6.53874-10.53135-15.75978-10.53135-26.6686-.19025-9.85948,3.56121-19.3833,10.402-26.45341,3.33294-3.35071,7.305-5.98416,11.68803-7.74041,4.72544-1.88233,9.77042-2.8313,14.85348-2.79485,10.50859,0,19.2213,3.80986,25.2023,11.01625,5.39505,6.50031,8.3627,15.6305,8.3627,25.70837v6.80355h-52.6569c.6011,5.49701,3.92643,10.31604,8.83446,12.80963,4.86239,2.25466,10.189,3.31389,15.54596,3.09093.32726.00989.66206.01598.98926.01598,7.09954-.0099,13.98602-2.41141,19.56371-6.81953l5.15157,12.39264c-3.13508,2.40152-6.6506,4.24679-10.40206,5.4582-6.20161,2.09182-12.69244,3.1442-19.22891,3.11072Zm-1.23268-59.72269c-4.6037-.12647-9.09321,1.41093-12.65442,4.3321-3.46989,3.13712-5.78315,7.36093-6.55928,11.98516h34.91943c.01521-4.22397-1.52185-8.30701-4.29926-11.4732-2.93723-3.18757-7.092-4.95538-11.40647-4.84406Zm-143.62631,59.72269c-9.88763,0-17.99698-2.62448-23.46356-7.59035-2.45932-2.22346-4.39819-4.96741-5.67505-8.03475-1.24795-3.03386-1.87877-6.28839-1.85596-9.57184-.06084-3.55206.82943-7.05541,2.57654-10.14406,1.64133-2.76069,3.91656-5.08611,6.63237-6.78224,5.73287-3.41205,12.29825-5.13786,18.94961-4.98263,4.71401,0,13.34991,1.60634,17.3182,4.62042v-7.17413c0-6.22957-4.85403-9.65996-13.66341-9.65996-6.61786.08363-13.15659,1.51267-19.21521,4.20114l-5.14315-12.59908c7.95939-3.85963,16.68204-5.87064,25.51725-5.88403h.11338c10.97274,0,18.56917,2.50075,23.23679,7.64918,4.09462,4.52036,5.99923,11.03254,5.99923,20.50454v36.87887c-3.50867,2.65567-7.47011,4.64097-11.68496,5.85846-6.37896,1.88332-12.99682,2.7972-19.64209,2.71046Zm.06009-34.60366c-3.16243-.08142-6.27847.7754-8.95544,2.46696-2.42362,1.52036-3.89526,4.18973-3.88841,7.05999-.10653,3.304,1.29207,6.47711,3.78873,8.62219,2.94937,2.25542,6.59121,3.39607,10.2932,3.21953.30665.01065.62624.01598.93898.01598,4.2217-.00533,8.38935-.9877,12.17808-2.87102v-13.47393c-4.12126-3.19061-9.15486-4.95752-14.35514-5.03969Zm-203.79367,34.60213c-11.31816,0-20.92504-3.43259-27.77045-9.92948-6.89333-6.53798-10.53518-15.75979-10.53518-26.6686-.17274-9.85948,3.57337-19.38101,10.40812-26.45333,3.3352-3.35026,7.3126-5.98325,11.69181-7.73897,4.72469-1.88241,9.76665-2.83137,14.84971-2.79485,10.50853,0,19.22357,3.80986,25.20306,11.01625,5.39273,6.50031,8.36346,15.6305,8.36346,25.70837v6.80355h-52.65923c.60191,5.49701,3.92568,10.31604,8.83602,12.80963,4.86164,2.25999,10.18818,3.32454,15.54062,3.10691.3272.01065.66049.01598.99152.01598,7.09501-.0099,13.98225-2.41141,19.56069-6.81953l5.15917,12.39035c-3.13584,2.40076-6.65594,4.24679-10.40891,5.45669-6.19783,2.08802-12.69471,3.13507-19.23042,3.09701Zm-1.23198-59.72261c-4.59679-.12662-9.08479,1.41078-12.64826,4.3321-3.4714,3.13667-5.78698,7.3601-6.57072,11.98584h34.92401c.00459-4.22473-1.52644-8.30488-4.3046-11.47388-2.93038-3.1862-7.08358-4.94914-11.39886-4.83812l-.00157-.00594Zm-194.52163,59.72261c-9.88763,0-17.99771-2.62371-23.46504-7.59035-2.46014-2.22346-4.39824-4.96892-5.67586-8.03779-1.24566-3.03082-1.87724-6.28154-1.85515-9.56119-.06316-3.55434.8256-7.05999,2.57271-10.15015,1.6406-2.76069,3.91581-5.08611,6.63388-6.78224,5.72834-3.41205,12.29369-5.13786,18.94964-4.98263,4.70869,0,13.34457,1.60634,17.31437,4.62042v-7.17413c0-6.22957-4.85174-9.65996-13.66112-9.65996-6.62091.08363-13.15738,1.51275-19.21521,4.20114l-5.15839-12.59908c7.97463-3.86016,16.70944-5.87094,25.56067-5.88403h.23512c10.95825,0,18.53567,2.50075,23.1637,7.64918,4.04745,4.50278,5.93229,11.01777,5.93229,20.50454v36.87887c-3.50716,2.65491-7.46784,4.6402-11.68725,5.85846-6.37667,1.88332-12.99833,2.7972-19.64438,2.70893Zm.06163-34.60442c-3.16321-.08142-6.28001.77692-8.96078,2.46697-2.42208,1.52111-3.8907,4.19124-3.88536,7.0615-.10653,3.30247,1.28673,6.47482,3.78565,8.62143,2.94028,2.25542,6.57832,3.3953,10.27193,3.22029.31654.00989.63689.01598.95268.01598,4.22777-.00533,8.39695-.98846,12.18644-2.8733v-13.47089c-4.12962-3.16931-9.15637-4.93545-14.35055-5.04198Zm104.79108,32.57196h-17.73443v-44.53923c0-7.58016-3.51172-11.42389-10.44235-11.42389-3.01561.15242-5.93989,1.09073-8.48598,2.72279-2.15802,1.25312-4.09308,2.85938-5.72454,4.7526v48.48393h-17.83031v-69.52197h17.73518v7.22267c5.77249-5.67271,13.44199-8.97709,21.51021-9.26738,4.29093-.17875,8.505,1.19132,11.87976,3.8629,2.08574,1.81773,3.73621,4.08555,4.82893,6.63416v-.00882c4.86544-3.65684,13.90385-10.48086,24.65287-10.48086,7.18935,0,12.69093,2.01823,16.35484,6.00015,3.78263,4.11888,5.70704,10.42211,5.70704,18.7569v46.80149h-17.67202v-43.79959c0-4.02155-.79596-7.07376-2.36728-9.07426-1.79581-2.1129-4.48347-3.24213-7.24108-3.04208-5.81815.35323-11.26571,2.99543-15.16169,7.35515v48.56383l-.00914.00152Z"/></g></g></svg>