<?xml version="1.0" encoding="UTF-8"?><svg id="LOGOS" xmlns="http://www.w3.org/2000/svg" xmlns:xlink="http://www.w3.org/1999/xlink" viewBox="0 0 1250 703"><defs><style>.cls-1{mask:url(#mask);}.cls-2{fill:#1d1d1b;}.cls-2,.cls-3{fill-rule:evenodd;}.cls-3{fill:#fff;}.cls-4{mask:url(#mask-1);}</style><mask id="mask" x="1007.98382" y="318.84833" width="87.9225" height="109.15916" maskUnits="userSpaceOnUse"><g id="mask-2"><polygon id="path-1" class="cls-3" points="1007.98382 318.84833 1095.9058 318.84833 1095.9058 428.00749 1007.98382 428.00749 1007.98382 318.84833"/></g></mask><mask id="mask-1" x="155" y="264.04698" width="940.90585" height="163.96059" maskUnits="userSpaceOnUse"><g id="mask-4"><polygon id="path-3" class="cls-3" points="155 428.00757 1095.90585 428.00757 1095.90585 264.04698 155 264.04698 155 428.00757"/></g></mask></defs><g id="Layer_4"><g id="Symbols"><g id="LAT---NAV"><g id="Group-21"><g id="Group-20"><polygon id="Fill-1" class="cls-2" points="155 284.5335 155 298.00169 182.21018 298.00169 182.21018 425.31288 224.80972 425.31288 224.80972 411.85971 197.80197 411.85971 197.80197 284.5335 155 284.5335"/><g id="Group-19"><path id="Fill-2" class="cls-2" d="m339.73161,394.48123v-18.8427c-14.07918,1.25373-23.72594,2.43238-28.95605,3.52095-5.24517,1.09607-9.76039,3.15309-13.6051,6.14101-3.82288,2.99468-5.74937,7.05617-5.74937,12.17618,0,4.64704,1.633,8.39247,4.899,11.27529,3.2803,2.86031,7.42678,4.2867,12.5064,4.2867,5.52285,0,11.02465-1.65161,16.49483-4.94734,5.4634-3.27246,10.27887-7.7994,14.41029-13.61009h0Zm18.20309,30.8312h-15.51653c-1.26426-4.20411-1.88887-9.79634-1.88887-16.75566-8.85659,12.95018-20.94232,19.4508-36.21051,19.4508-7.73532,0-14.54576-2.74769-20.45242-8.23556-5.89988-5.48712-8.84229-12.53653-8.84229-21.19926,0-5.13503,1.02345-9.65446,3.0854-13.57255,2.06947-3.91133,5.09467-7.23709,9.11245-9.93973,3.98844-2.67938,8.86487-4.81222,14.58414-6.36624,5.73357-1.5833,12.54402-2.64184,20.41479-3.24243l17.51074-1.41138v-4.97737c0-17.82922-8.34487-26.7472-25.00599-26.7472-3.94254,0-8.9168.86335-14.95214,2.53748-6.03458,1.71843-11.2346,3.71539-15.56093,6.04267l-4.08626-11.1777c14.19207-7.22958,27.39079-10.87065,39.60369-10.87065,23.71918,0,35.60095,12.54478,35.60095,37.63286v44.68977c0,9.05312.85789,17.10025,2.60378,24.14214Z"/><path id="Fill-4" class="cls-2" d="m479.23802,420.63564c-10.45948,4.77468-20.76921,7.16202-30.90512,7.16202-18.60193,0-27.90253-9.80461-27.90253-29.41982v-63.56251h-20.00915v-13.48246h20.00915v-28.41458h15.20048v28.41458h35.42034v13.48246h-35.42034v59.47099c0,6.32045,1.3997,11.22275,4.20667,14.71367,2.79869,3.47515,6.58394,5.21761,11.40017,5.21761,8.52548,0,16.97644-1.8851,25.2837-5.66055l2.71664,12.07858Z"/><path id="Fill-6" class="cls-2" d="m587.24486,361.15752c0-8.11546-2.54356-14.9539-7.60814-20.51685-5.06382-5.52466-10.72286-8.3174-16.99072-8.3174-8.0747,0-14.75722,2.6576-20.05433,7.98707-5.29034,5.32272-8.2478,12.26702-8.84231,20.84718h53.49549Zm17.00656,12.67166h-71.49538c0,11.78654,3.41651,21.48529,10.24201,29.12777,6.83226,7.66426,15.21476,11.4855,25.14822,11.4855,9.45861,0,19.24157-1.70417,29.29469-5.09749l2.71666,12.46896c-9.21101,4.12154-19.94142,6.19357-32.207,6.19357-15.46388,0-27.9409-4.96161-37.40703-14.87882-9.46617-9.91646-14.21467-23.25627-14.21467-40.09527,0-16.5004,4.2669-29.65254,12.76978-39.4639,8.50368-9.81211,19.4749-14.72117,32.95204-14.72117,11.99466,0,22.02598,4.56372,30.10068,13.64011,8.06643,9.1357,12.1,21.28935,12.1,36.46096v4.87978Z"/><path id="Fill-8" class="cls-2" d="m725.66772,324.14056l-6.29122,14.96891c-6.8699-2.99543-12.81493-4.4894-17.81927-4.4894-4.62056,0-9.08987,1.29127-13.49974,3.94887-4.3948,2.62757-8.44269,6.37299-12.14515,11.26028-3.71002,4.89479-5.55374,7.64248-5.55374,8.20554v67.26288h-15.50899v-103.95732h15.50899v21.0799c8.33059-15.71214,19.14375-23.57234,32.40269-23.57234,7.87154,0,15.50147,1.75672,22.90644,5.29268"/><polygon id="Fill-10" class="cls-2" points="820.97957 425.31273 805.38779 425.31273 805.38779 334.81534 774.67005 334.81534 774.67005 321.34039 820.97957 321.34039 820.97957 425.31273"/><path id="Fill-12" class="cls-2" d="m970.87054,420.63564c-10.4445,4.77468-20.7467,7.16202-30.89013,7.16202-18.58683,0-27.88819-9.80461-27.88819-29.41982v-63.56251h-20.02425v-13.48246h20.02425v-28.41458h15.18544v28.41458h35.41282v13.48246h-35.41282v59.47099c0,6.32045,1.40718,11.22275,4.21414,14.71367,2.80696,3.47515,6.59226,5.21761,11.40847,5.21761,8.51792,0,16.94637-1.8851,25.29124-5.66055l2.67902,12.07858Z"/><g id="Group-16"><g class="cls-1"><path id="Fill-14" class="cls-2" d="m1078.89977,361.15751c0-8.11545-2.54357-14.9539-7.60814-20.51684-5.05704-5.52466-10.72288-8.3174-16.98398-8.3174-8.089,0-14.75647,2.6576-20.06109,7.98707-5.29033,5.32271-8.24027,12.26702-8.85734,20.84717h53.51055Zm17.00655,12.67166h-71.50292c0,11.78654,3.42404,21.48529,10.24878,29.12778,6.84055,7.66426,15.23057,11.48549,25.15651,11.48549,9.4511,0,19.21901-1.70416,29.29471-5.09749l2.7016,12.46896c-9.21028,4.12154-19.93391,6.19357-32.20702,6.19357-15.46385,0-27.94014-4.9616-37.40704-14.87882-9.46615-9.91646-14.20712-23.25627-14.20712-40.09527,0-16.50041,4.25935-29.65254,12.76225-39.4639,8.50365-9.81211,19.47487-14.72117,32.95203-14.72117,11.99541,0,22.04101,4.56372,30.09314,13.64011,8.08148,9.1357,12.11507,21.28935,12.11507,36.46096v4.87978Z"/></g></g><g class="cls-4"><polygon id="Fill-17" class="cls-2" points="801.80588 309.1489 819.88855 309.1489 819.88855 264.04698 801.80588 264.04698 801.80588 309.1489"/></g></g></g></g></g></g></g></svg>