<svg id="LOGO" xmlns="http://www.w3.org/2000/svg" xmlns:xlink="http://www.w3.org/1999/xlink" width="1250" height="703" viewBox="0 0 1250 703"><defs><style>.cls-1{fill:#fff;}.cls-1,.cls-2,.cls-5{fill-rule:evenodd;}.cls-2{fill:#45494b;}.cls-3{mask:url(#mask);}.cls-4{mask:url(#mask-2-2);}.cls-5{fill:#ff6418;}</style><mask id="mask" x="234.26449" y="225.26707" width="823.73551" height="207.44665" maskUnits="userSpaceOnUse"><g id="mask-2"><polygon id="path-1" class="cls-1" points="234.264 225.267 1058 225.267 1058 432.714 234.264 432.714 234.264 225.267"/></g></mask><mask id="mask-2-2" x="234.14392" y="225.26707" width="823.85608" height="207.44665" maskUnits="userSpaceOnUse"><g id="mask-2-3" data-name="mask-2"><polygon id="path-1-2" data-name="path-1" class="cls-1" points="234.264 225.267 1058 225.267 1058 432.714 234.264 432.714 234.264 225.267"/></g></mask></defs><g id="Symbols"><g id="Header-_-Desktop-Copy-2" data-name="Header-/-Desktop-Copy-2"><g id="Logo-_-Interactions" data-name="Logo-/-Interactions"><g id="interactions_Logo_HOR_RGB" data-name="interactions Logo HOR RGB"><path id="Fill-1" class="cls-2" d="M449.87447,378.59781a4.27041,4.27041,0,0,1,4.1797-4.28186,4.22248,4.22248,0,0,1,4.2902,4.28186v49.28652a4.13086,4.13086,0,0,1-4.17969,4.27986,4.222,4.222,0,0,1-4.29021-4.27986Zm-.76762-21.51561c0-2.74359,2.19836-4.50045,4.94732-4.50045,2.85947,0,5.05984,1.75686,5.05984,4.50045v1.428c0,2.6353-2.20037,4.49846-5.05984,4.49846-2.749,0-4.94732-1.86316-4.94732-4.49846v-1.428Z"/><path id="Fill-2" class="cls-2" d="M479.50007,378.59781a4.26869,4.26869,0,0,1,4.17767-4.28186,4.2225,4.2225,0,0,1,4.29023,4.28186v6.145c3.74163-6.145,9.67962-11.08471,19.46773-11.08471,13.74879,0,21.77661,9.22155,21.77661,22.721v31.50526a4.2342,4.2342,0,1,1-8.4679,0V398.46685c0-10.5392-5.719-17.12344-15.7281-17.12344-9.78814,0-17.04834,7.13176-17.04834,17.78126v28.75966a4.12923,4.12923,0,0,1-4.17769,4.27986,4.22081,4.22081,0,0,1-4.29021-4.27986V378.59781"/><path id="Fill-3" class="cls-2" d="M548.21185,416.577V382.33015h-4.61778a3.85214,3.85214,0,0,1-3.74162-3.73234,3.778,3.778,0,0,1,3.74162-3.73434h4.61778v-13.3891a4.197,4.197,0,0,1,4.17767-4.28186,4.36633,4.36633,0,0,1,4.29222,4.28186v13.3891h14.73745a3.87116,3.87116,0,0,1,3.84813,3.73434,3.79827,3.79827,0,0,1-3.84813,3.73234H556.68174V415.478c0,6.91917,3.84814,9.44015,9.5651,9.44015a24.10088,24.10088,0,0,0,5.17235-.76611,3.65668,3.65668,0,0,1,3.62912,3.622,3.53022,3.53022,0,0,1-2.4194,3.29312,21.42338,21.42338,0,0,1-8.3594,1.53626c-9.129,0-16.05766-4.50047-16.05766-16.02639"/><path id="Fill-4" class="cls-2" d="M629.43858,400.11141c-.87811-10.31658-6.81812-19.31953-18.1455-19.31953-9.90065,0-17.37586,8.23482-18.47907,19.31953Zm-16.82727,32.82292c-15.61761,0-28.37572-11.96514-28.37572-29.5298v-.21861c0-16.3553,11.54841-29.5278,27.27654-29.5278,16.82727,0,26.39637,13.72,26.39637,28.75967a3.93941,3.93941,0,0,1-3.96268,3.95095H592.814c1.2097,12.29606,9.89665,19.20921,20.01632,19.20921a23.25443,23.25443,0,0,0,16.38923-6.58825,3.72823,3.72823,0,0,1,2.4194-.98473,3.59051,3.59051,0,0,1,2.41939,6.36765,28.94818,28.94818,0,0,1-21.447,8.56171Z"/><path id="Fill-5" class="cls-2" d="M652.59572,378.59781a4.27078,4.27078,0,0,1,4.1817-4.28186,4.22326,4.22326,0,0,1,4.28821,4.28186v10.6475c4.17969-9.44015,12.42855-15.146,19.57825-15.146a4.06518,4.06518,0,0,1,4.17972,4.27785,4.19678,4.19678,0,0,1-3.74168,4.28186c-10.99779,1.31564-20.01629,9.54845-20.01629,25.90576v19.31951a4.23519,4.23519,0,1,1-8.46991,0V378.59781"/><path id="Fill-6" class="cls-2" d="M731.73461,410.76091V405.2717a59.31376,59.31376,0,0,0-16.71477-2.41669c-10.67024,0-16.60826,4.61076-16.60826,11.74653v.21661c0,7.13977,6.59911,11.30932,14.29739,11.30932,10.44926,0,19.02564-6.36563,19.02564-15.36656m-41.90142,4.39015v-.22061c0-11.96514,9.90062-18.33278,24.30654-18.33278a60.53057,60.53057,0,0,1,17.48842,2.4167v-1.97749c0-10.20626-6.27156-15.47686-16.93984-15.47686a35.59482,35.59482,0,0,0-14.73543,3.18281,4.28229,4.28229,0,0,1-1.5413.33092,3.75389,3.75389,0,0,1-3.73759-3.624,3.86768,3.86768,0,0,1,2.30688-3.51173,44.9226,44.9226,0,0,1,18.58559-3.84064c8.03182,0,14.19082,2.08378,18.37054,6.25734,3.84813,3.84265,5.82949,9.32984,5.82949,16.57391v31.06605a4.01538,4.01538,0,0,1-4.06917,4.16955,3.89838,3.89838,0,0,1-4.06917-3.953V423.055c-3.9607,5.15628-10.5598,9.76706-20.56895,9.76706-10.55774,0-21.226-6.03672-21.226-17.671"/><path id="Fill-7" class="cls-2" d="M752.27343,403.51684v-.22061c0-16.02639,12.53708-29.63811,29.14533-29.63811a29.43323,29.43323,0,0,1,20.89645,8.23081,3.97836,3.97836,0,0,1,1.32021,2.96621,4.054,4.054,0,0,1-4.06917,4.05925,4.39175,4.39175,0,0,1-2.74895-.98474c-4.06917-3.73232-8.691-6.80685-15.50706-6.80685-11.54844,0-20.34989,9.76906-20.34989,21.95282v.22061c0,12.29405,9.02052,22.06311,20.89847,22.06311,6.49058,0,11.65691-2.96421,15.83864-6.91516a3.35569,3.35569,0,0,1,2.41939-1.099,3.96773,3.96773,0,0,1,3.84814,3.84064,3.83823,3.83823,0,0,1-1.09717,2.63731c-5.3914,5.37689-11.878,9.11124-21.44906,9.11124a29.16547,29.16547,0,0,1-29.14533-29.41749"/><path id="Fill-8" class="cls-2" d="M817.81225,416.577V382.33015H813.1945a3.85179,3.85179,0,0,1-3.73966-3.73234,3.77757,3.77757,0,0,1,3.73966-3.73434h4.61775v-13.3891a4.19736,4.19736,0,0,1,4.17966-4.28186,4.3646,4.3646,0,0,1,4.29026,4.28186v13.3891h14.73744a3.87119,3.87119,0,0,1,3.84814,3.73434,3.7983,3.7983,0,0,1-3.84814,3.73234H826.28217V415.478c0,6.91917,3.84813,9.44015,9.56708,9.44015a24.09788,24.09788,0,0,0,5.17036-.76611,3.65492,3.65492,0,0,1,3.62705,3.622,3.52827,3.52827,0,0,1-2.41738,3.29312,21.42312,21.42312,0,0,1-8.35937,1.53626c-9.129,0-16.05766-4.50047-16.05766-16.02639"/><path id="Fill-9" class="cls-2" d="M859.77594,378.59781a4.2691,4.2691,0,0,1,4.17972-4.28186,4.22493,4.22493,0,0,1,4.2902,4.28186v49.28652a4.13127,4.13127,0,0,1-4.18167,4.27986,4.22039,4.22039,0,0,1-4.28825-4.27986Zm-.77163-21.51561c0-2.74359,2.19836-4.50045,4.95135-4.50045,2.8595,0,5.05786,1.75686,5.05786,4.50045v1.428c0,2.6353-2.19836,4.49846-5.05786,4.49846-2.753,0-4.95135-1.86316-4.95135-4.49846v-1.428Z"/><path id="Fill-10" class="cls-2" d="M932.989,403.51684v-.22061c0-12.18576-9.12905-22.17343-21.11754-22.17343-12.316,0-20.7859,9.98767-20.7859,21.95282v.22061c0,12.18174,9.0185,22.06311,21.005,22.06311,12.322,0,20.89847-9.88137,20.89847-21.8425m-50.59042,0v-.22061a29.63908,29.63908,0,0,1,59.27734-.22061v.22061a29.4956,29.4956,0,0,1-29.80446,29.6381,29.09987,29.09987,0,0,1-29.47288-29.41749"/><path id="Fill-11" class="cls-2" d="M953.21425,378.59781A4.2691,4.2691,0,0,1,957.394,374.316a4.2237,4.2237,0,0,1,4.2902,4.28186v6.145c3.73765-6.145,9.67763-11.08471,19.46575-11.08471,13.74876,0,21.77862,9.22155,21.77862,22.721v31.50526a4.2352,4.2352,0,1,1-8.46992,0V398.46685c0-10.5392-5.719-17.12344-15.72608-17.12344-9.79215,0-17.04837,7.13176-17.04837,17.78126v28.75966a4.13083,4.13083,0,0,1-4.17966,4.27986,4.22084,4.22084,0,0,1-4.29025-4.27986V378.59781"/><g id="Group-15"><g class="cls-3"><path id="Fill-12" class="cls-2" d="M1015.87553,425.578a3.81487,3.81487,0,0,1-1.53924-3.07251,3.68136,3.68136,0,0,1,3.73961-3.622,3.3727,3.3727,0,0,1,2.08782.65983c5.82949,3.949,11.88,6.03472,18.039,6.03472,6.81813,0,11.76947-3.51173,11.76947-9.00093v-.21861c0-5.70982-6.70959-7.9059-14.18886-9.98967-8.908-2.525-18.80863-5.59952-18.80863-16.02439v-.22061c0-9.77107,8.14035-16.247,19.35721-16.247a39.66736,39.66736,0,0,1,18.14754,4.83138,4.10108,4.10108,0,0,1,2.08984,3.51173,3.68136,3.68136,0,0,1-3.73961,3.622,4.30179,4.30179,0,0,1-1.87087-.43922,30.8206,30.8206,0,0,0-14.84592-4.39217c-6.70965,0-10.99784,3.51373-10.99784,8.23482v.22061c0,5.37689,7.03715,7.46267,14.62494,9.76705,8.80145,2.6333,18.26,6.04073,18.26,16.245v.22262c0,10.75378-8.91,17.01313-20.23732,17.01313a39.38247,39.38247,0,0,1-21.88715-7.13577"/></g><g class="cls-4"><path id="Fill-14" class="cls-5" d="M325.1387,240.0801a76.14679,76.14679,0,0,1,76.09657,76.0246v28.49694l14.8339,19.82692V316.1047a90.96271,90.96271,0,0,0-181.92525,0c0,50.05866,40.82035,90.78548,90.99478,90.78548h84.85182a7.42451,7.42451,0,0,0,7.5114-7.50078,7.45264,7.45264,0,0,0-2.20438-5.44107,6.83227,6.83227,0,0,0-5.307-2.04566H325.1387c-41.99389,0-76.15887-34.0042-76.15887-75.798a76.17944,76.17944,0,0,1,76.15887-76.0246"/></g></g><path id="Fill-16" class="cls-5" d="M371.48709,344.89445v17.332H325.28136a46.14687,46.14687,0,1,1,46.20573-46.12778Zm15.50909,9.36394V316.1047A61.24574,61.24574,0,1,0,325.7757,377.22h77.8428l-16.62232-22.9616Z"/></g></g></g></g></svg>