<svg id="LOGO" xmlns="http://www.w3.org/2000/svg" viewBox="0 0 1250 703"><defs><style>.cls-1{fill:#fff;}.cls-2{fill:#3fa764;}.cls-3{fill:#110645;}.cls-4{fill:#484643;}</style></defs><rect class="cls-1" x="190.49686" y="332.40907" width="36.84801" height="36.84801"/><path class="cls-2" d="M233.64606,369.25708h36.84833V332.40875H233.64606Zm-43.1492-44.56242h36.848v-36.848h-36.848Zm43.1492-36.848v36.848h36.84833v-36.848Z"/><path class="cls-3" d="M147.34766,324.69466h36.848v-36.848h-36.848Zm0,44.56242h36.848V332.40875h-36.848Zm0,44.56974h36.848V376.97849h-36.848Zm43.1492,0h36.848V376.97849h-36.848Zm43.1492-36.84833v36.84833h36.84833V376.97849Z"/><path class="cls-4" d="M336.69892,387.54066q-5.94772-8.3274-5.94773-22.6092,0-15.47546,5.94773-23.80619,5.9587-8.3379,17.06524-8.33408,10.7061,0,16.66115,8.33408,5.54793,8.32738,5.5586,23.80619,0,15.08569-5.94772,22.6092-5.95872,8.33788-17.06525,8.33407a18.93074,18.93074,0,0,1-16.272-8.33407m-5.55128-74.38831a37.58347,37.58347,0,0,0-15.87557,10.908q-11.49565,15.08618-11.499,39.68145,0,25.79226,11.499,40.46734,11.50665,15.07518,30.55415,15.075a42.22461,42.22461,0,0,0,17.46169-3.5687,33.24709,33.24709,0,0,0,12.696-12.29955v39.278a13.56359,13.56359,0,0,0,13.48922,13.4889H402.962V357.39028q0-27.77166-16.26469-37.88642a65.6105,65.6105,0,0,0-35.31252-10.12209,56.43655,56.43655,0,0,0-20.23718,3.77058"/><path class="cls-4" d="M498.19,311.76079a12.85562,12.85562,0,0,0-9.72564,3.97248,13.319,13.319,0,0,0-3.77058,9.51674v53.95625q0,9.53825-5.75317,13.893a20.78271,20.78271,0,0,1-12.89088,4.36161,19.95261,19.95261,0,0,1-12.696-4.36161q-5.55844-4.36908-5.55128-13.893V311.76079H420.02378V373.655q0,27.3819,14.08756,36.11275a63.76281,63.76281,0,0,0,31.14548,9.51643,61.70383,61.70383,0,0,0,32.14026-8.73053Q512.072,401.837,512.07565,373.655V311.76079Z"/><path class="cls-4" d="M558.49487,394.68538a12.86774,12.86774,0,0,1-3.56871-9.52407,16.22068,16.22068,0,0,1,2.77548-8.73053q3.17925-3.16875,10.317-5.15514l9.12-1.98258a75.11506,75.11506,0,0,0,15.47912-5.15482v9.91319q0,11.11737-6.34386,17.4617-6.35994,6.348-17.46233,6.34418-6.74779,0-10.31665-3.17193m-15.4718-76.17631a30.4756,30.4756,0,0,0-11.10287,20.22985h26.57467a10.83487,10.83487,0,0,1,6.35149-5.94773,28.98134,28.98134,0,0,1,9.92116-1.59345,40.626,40.626,0,0,1,11.30381,1.79534c4.10239,1.18235,6.14961,3.77058,6.14961,7.73574q0,7.93763-17.45342,10.317c-2.38.26685-4.49948.591-6.35246.98778a23.20449,23.20449,0,0,1-4.76537.591q-15.07519,2.39017-24.79366,9.52375-9.73311,7.14855-9.71864,23.8132,0,17.84365,10.71343,25.58688a41.5233,41.5233,0,0,0,24.99554,7.73574,157.1121,157.1121,0,0,0,16.45958-.99479,48.81669,48.81669,0,0,0,17.656-5.34939q7.95-3.96882,13.69174-12.89789,5.75236-8.93305,5.75253-24.794V339.13569q0-14.27513-11.50633-22.22007-11.10637-7.52685-33.32994-7.53385-19.84407,0-30.54682,9.1273"/><path class="cls-4" d="M649.55546,319.302q-14.10171,9.12745-14.08756,36.09841v61.9012h27.77867V349.84911c0-6.3445,1.83832-10.97327,5.55127-13.88567a20.009,20.009,0,0,1,12.696-4.36192,20.81381,20.81381,0,0,1,12.89152,4.36192q5.75189,4.3686,5.75953,13.88567v53.95624a12.90838,12.90838,0,0,0,13.48191,13.49623h13.88566v-61.9012q0-27.76067-14.67856-36.89131a59.71208,59.71208,0,0,0-32.13233-9.1273,61.46318,61.46318,0,0,0-31.14611,9.9202"/><path class="cls-4" d="M744.5742,280.8172V397.46086q0,18.25491,15.28424,19.44427a206.35262,206.35262,0,0,0,28.36173.39645V396.668H779.8931q-7.94719,0-7.93764-6.74827V331.19774h2.77581a13.33065,13.33065,0,0,0,9.52374-3.76326,12.82479,12.82479,0,0,0,3.96516-9.72564v-5.5516H771.95546V294.30642a12.98864,12.98864,0,0,0-3.97248-9.52375,12.56587,12.56587,0,0,0-9.11932-3.96547Z"/><path class="cls-4" d="M879.37853,387.54066q-5.9597-7.53785-5.94836-22.6092,0-16.265,5.55189-23.80619,5.94678-8.3379,16.66051-8.33408,11.10638,0,17.05856,8.33408,5.95776,8.32738,5.95442,23.80619,0,14.27464-5.95442,22.6092a18.91071,18.91071,0,0,1-16.26533,8.33407q-11.10637,0-17.05727-8.33407m-16.6618-68.0368q-16.276,10.11141-16.27139,37.88642V456.1828h13.49559a13.56363,13.56363,0,0,0,13.48924-13.4889v-39.278a29.88007,29.88007,0,0,0,12.68865,12.29955,40.47564,40.47564,0,0,0,17.4617,3.5687q18.6547,0,30.54682-15.075,11.90787-15.486,11.9101-40.46734,0-24.19167-11.9101-39.68145a37.38281,37.38281,0,0,0-16.06281-10.908,57.06913,57.06913,0,0,0-20.0356-3.77058,65.57393,65.57393,0,0,0-35.3122,10.12209"/><path class="cls-4" d="M963.09918,280.8172V417.30158h26.97844v-54.36q0-13.87485,5.94837-21.81629,5.94677-7.93762,17.05728-7.93763a18.941,18.941,0,0,1,16.272,8.32707,27.55676,27.55676,0,0,1,4.56349,10.12209,56.11734,56.11734,0,0,1,.99511,10.90831v54.75647h26.57437V355.80416q0-18.24393-7.53387-28.57157a44.686,44.686,0,0,0-18.644-15.07535,40.28849,40.28849,0,0,0-25.00288-1.58612,31.48,31.48,0,0,0-20.22985,15.07534v-31.34A13.55136,13.55136,0,0,0,976.5884,280.8172Z"/><path class="cls-4" d="M817.676,311.76079h-12.3941V417.30158H829.3836V325.24969a14.08175,14.08175,0,0,0-3.43878-9.51642A10.64486,10.64486,0,0,0,817.676,311.76079Zm-12.3941-30.94359v24.10138H829.3836V280.8172Z"/><path class="cls-4" d="M1090.94315,311.91937H1078.55V417.46016h24.095V325.4156a14.08075,14.08075,0,0,0-3.43941-9.53108A10.60346,10.60346,0,0,0,1090.94315,311.91937ZM1078.55,280.97578v24.1017h24.10233v-24.1017Z"/></svg>