<?xml version="1.0" encoding="UTF-8"?><svg id="LOGOS" xmlns="http://www.w3.org/2000/svg" xmlns:xlink="http://www.w3.org/1999/xlink" viewBox="0 0 1250 703"><defs><style>.cls-1{fill:url(#linear-gradient);}</style><linearGradient id="linear-gradient" x1="125.36542" y1="-901.83811" x2="317.04428" y2="-710.15925" gradientTransform="translate(404 1065)" gradientUnits="userSpaceOnUse"><stop offset="0" stop-color="#ff805f"/><stop offset=".5" stop-color="#b74bdd"/><stop offset="1" stop-color="#0379ff"/></linearGradient></defs><g id="Layer_4"><g><path d="m371.66621,443.54845c-1.6954,0-1.82464.1305-1.82464,2.99861v19.55711c0,7.29978,0,15.38583,9.12571,15.38583,1.82525,0,3.91154-.91358,5.47643-1.95766,1.30321.39028,2.0869,1.82586,1.82525,3.39201-3.65054,3.90906-10.68996,7.56024-18.77533,7.56024-10.82107,0-14.60276-6.25761-14.60276-14.86376v-29.0757c0-2.73761-.1305-2.9967-2.47783-2.9967h-4.04143c-1.43436-.52269-1.82525-3.13101-.78243-4.04329,4.04208-1.43497,7.69383-3.78168,10.82107-5.86732,2.34607-1.69475,5.60693-4.43236,9.64775-10.16918.91358-.52269,3.259-.3915,3.91279.65128v9.7789c0,2.47722.12924,2.60642,2.47596,2.60642h11.60541c.65254.52078,1.04221,1.30637,1.04221,2.47844,0,1.43375-.39089,3.78107-1.69414,4.56476h-11.73404Zm36.76698,14.21118c-3.00047,0-3.26026.2623-3.26026,2.34733,0,9.77829,6.25822,19.2955,18.38379,19.2955,3.64989,0,8.60554-.78178,12.12432-6.779,1.43436-.261,3.39262.78178,3.39262,2.99861-5.34715,11.08276-14.99551,14.86505-22.81802,14.86505-17.60072,0-27.12109-12.38784-27.12109-26.59779,0-16.43052,11.86641-29.20612,28.16517-29.20612,13.55803,0,20.85971,8.73726,20.85971,18.77343,0,2.47844-.65254,4.30369-4.694,4.30369h-25.03225v-.00069Zm8.60428-5.73743c1.82651,0,3.91279-.25978,5.3459-1.17397.65254-.38967.91293-1.69597.91293-2.99861,0-4.30186-2.47657-7.16996-6.90953-7.16996-5.47579,0-10.16914,5.21665-10.16914,9.38801,0,1.82403,1.8259,1.95453,5.99721,1.95453h4.82264Zm79.14024-11.08207c-3.77978.52078-5.73496,1.04156-7.82185,2.34542-1.8259,1.17587-6.78025,6.65162-9.77825,10.43079-1.56364,2.08625-2.47783,3.25961-2.47783,3.91218,0,.78247,1.56364,3.39079,2.73822,5.08486l8.86654,13.16901c4.69336,6.779,7.17053,7.95487,11.60354,8.47314l1.43497.12989c1.04221.9148,1.04221,4.04581-.39089,4.56598-5.73743-.26039-10.82233-.3915-15.77798-.3915-5.21414,0-11.3425.13111-17.34097.3915-1.1721-.52017-1.43249-3.65118-.39154-4.56598l2.86872-.51956c1.8259-.3915,2.21553-.91297,2.21553-1.43375,0-.52269-.52017-1.82655-1.56364-3.52251-1.82464-2.86872-3.52126-5.60571-5.60568-8.60303-1.82651,2.73883-3.65179,5.7356-5.34654,8.60303-1.04534,1.82525-1.56364,2.99983-1.56364,3.7829,0,.65189.51891,1.04469,2.34481,1.30325l2.08816.38967c1.0416.7843.77995,4.04581-.26165,4.56598-3.78043-.26039-7.69071-.3915-11.73404-.3915-2.998,0-6.12771.13111-10.16979.3915-1.17336-.65319-1.56425-3.52129-.26039-4.56598l3.25961-.51956c2.21492-.3915,4.95561-1.30447,6.12771-2.60711,1.9564-1.95644,8.86593-10.95218,10.69183-13.6904.78243-1.30386,1.17397-2.21683,1.17397-2.86811,0-.52208-1.04221-2.34733-4.17258-6.9095l-7.04129-10.82107c-2.60646-4.04208-5.08489-5.08615-7.9511-5.73743l-2.73883-.65319c-.91358-.65319-.91358-4.17136.38967-4.56347,5.08676.261,8.60554.39219,15.77798.39219,4.694,0,9.25747-.13111,13.95083-.39219,1.56364.52208,1.6954,3.78107.26104,4.56347l-1.56364.39089c-1.04282.13111-1.9564.52078-1.9564.91358,0,.52208.26104,1.17336,1.17271,2.73883,1.69601,2.86933,3.52065,5.34593,5.3478,7.95174,1.30199-1.82655,3.51939-4.95565,5.60507-8.08224.78243-1.17397.91232-1.69597.91232-2.34733,0-.52269-.78182-.91297-2.0869-1.17458l-1.43375-.39089c-1.1721-.78247-.91358-4.04147.39089-4.56347,3.78104.261,7.17179.39219,11.8658.39219,3.25961,0,6.64789-.13111,9.90875-.39219,1.30321.39219,1.43375,3.78107.26165,4.56347l-1.82895.26108Zm32.07297,2.60833c-1.69475,0-1.82403.1305-1.82403,2.99861v19.55711c0,7.29978,0,15.38583,9.12445,15.38583,1.82651,0,3.91218-.91358,5.4783-1.95766,1.30134.39028,2.08503,1.82586,1.82403,3.39201-3.65115,3.90906-10.69183,7.56024-18.77282,7.56024-10.8242,0-14.60523-6.25761-14.60523-14.86376v-29.0757c0-2.73761-.1305-2.9967-2.47718-2.9967h-4.04082c-1.43687-.52269-1.8259-3.13101-.78308-4.04329,4.04268-1.43497,7.69196-3.78168,10.82046-5.86732,2.34855-1.69475,5.60693-4.43236,9.64836-10.16918.91358-.52269,3.26087-.3915,3.91344.65128v9.7789c0,2.47722.12863,2.60642,2.47531,2.60642h11.60476c.65319.52078,1.04282,1.30637,1.04282,2.47844,0,1.43375-.38967,3.78107-1.69414,4.56476h-11.73465Zm19.68639,36.37418c0-6.12771,4.69648-10.81924,10.56194-10.81924,6.25886,0,10.56255,5.21543,10.56255,10.81924,0,6.00034-4.30372,10.5632-10.56255,10.5632-5.21604-.00008-10.56194-4.17197-10.56194-10.5632Zm77.83695-43.02336c1.69536,1.43375,2.73822,3.26022,2.73822,6.77968,0,3.91279-1.82342,7.43096-3.38889,7.43096-.65319,0-1.82464-.2623-2.08816-.65128-3.65054-5.21665-8.73356-9.78012-13.42818-9.78012-8.47439,0-13.03912,9.6484-13.03912,18.64483,0,10.29907,6.6504,20.72986,18.64544,20.72986,4.82386,0,8.73665-1.56486,11.60476-6.3875,1.56364-.1305,3.39011.78247,3.39011,2.8675-2.86681,6.51861-10.69309,13.95147-23.07841,13.95147-16.42926,0-27.64001-10.95218-27.64001-26.33801,0-18.51364,14.99365-29.4659,32.59562-29.4659,4.43304.00107,10.16861.91525,13.68861,2.2185Zm7.94991,26.72769c-.25848-18.64422,14.60398-28.94573,29.98981-28.94573s29.20551,9.38732,29.20551,27.77176c0,19.03694-13.95018,28.03276-29.9879,28.03276-15.51824,0-29.20742-8.86525-29.20742-26.8588Zm18.77655-2.86872c0,13.6904,4.30056,23.72969,11.86515,23.72969,7.43035,0,9.77829-8.47253,9.77829-20.20778-.261-12.64762-3.78039-23.5998-11.21265-23.5998-5.73743-.00061-10.43079,5.86671-10.43079,20.07789Zm55.41112-6.64911c0-5.21604,0-6.6504-2.47722-8.34454l-1.82715-1.17275c-.91167-.7843-.91167-3.13162,0-3.91218,5.99721-1.69597,14.99426-5.21543,19.03511-7.82307,1.04286,0,1.82525.39219,2.34672,1.17336-.2623,2.60894-.52139,4.43358-.52139,5.60693,0,.91297.25917,1.30386,1.30447,1.56547,3.52061-2.21805,7.30168-6.5199,12.77751-6.5199,3.52061,0,7.16996,2.73883,7.16996,7.69196,0,5.99721-4.17448,8.47375-8.34324,8.47375-1.82655,0-3.39011-.78247-5.08486-2.34672-2.99983-2.47783-4.1757-2.60642-4.95626-2.60642-1.82525,0-2.47783,2.8675-2.47783,7.82063v20.07858c0,9.12823.52452,10.16979,4.82576,10.56129l4.17197.3915c1.04286.78247,1.04286,3.78229-.13241,4.56347-6.257-.261-11.47174-.39028-17.59824-.39028-5.34776,0-11.0852.12928-15.38896.39028-1.17458-.78117-1.17458-3.78107-.1318-4.56347l2.48095-.261c4.30117-.52078,4.82203-1.56364,4.82203-10.69179v-19.68578h.00488v.00069Zm67.27383-10.56068c-1.69597,0-1.82586.1305-1.82586,2.99861v19.55711c0,7.29978,0,15.38583,9.12632,15.38583,1.82464,0,3.91279-.91358,5.47704-1.95766,1.30325.39028,2.08564,1.82586,1.82837,3.39201-3.65179,3.90906-10.6937,7.56024-18.77785,7.56024-10.82107,0-14.60276-6.25761-14.60276-14.86376v-29.0757c0-2.73761-.12928-2.9967-2.47844-2.9967h-4.04078c-1.43436-.52269-1.82655-3.13101-.78247-4.04329,4.04208-1.43497,7.69135-3.78168,10.82107-5.86732,2.34603-1.69475,5.60503-4.43236,9.64588-10.16918.91419-.52269,3.26273-.3915,3.91279.65128v9.7789c0,2.47722.1305,2.60642,2.47783,2.60642h11.60224c.6557.52078,1.04347,1.30637,1.04347,2.47844,0,1.43375-.38906,3.78107-1.69353,4.56476h-11.73335Zm36.76507,14.21118c-2.99922,0-3.25839.2623-3.25839,2.34733,0,9.77829,6.25822,19.2955,18.38253,19.2955,3.65301,0,8.60554-.78178,12.12554-6.779,1.43558-.261,3.39011.78178,3.39011,2.99861-5.34464,11.08276-14.99555,14.86505-22.81489,14.86505-17.60197,0-27.11987-12.38784-27.11987-26.59779,0-16.43052,11.86263-29.20612,28.16517-29.20612,13.55616,0,20.85785,8.73726,20.85785,18.77343,0,2.47844-.65258,4.30369-4.69458,4.30369h-25.03347v-.00069Zm8.60806-5.73743c1.82273,0,3.91157-.25978,5.34464-1.17397.6538-.38967.91419-1.69597.91419-2.99861,0-4.30186-2.47783-7.16996-6.9095-7.16996-5.47704,0-10.17101,5.21665-10.17101,9.38801,0,1.82403,1.82715,1.95453,6.00034,1.95453h4.82134Zm79.1402-11.08207c-3.78229.52078-5.73743,1.04156-7.82376,2.34542-1.82655,1.17587-6.77968,6.65162-9.77951,10.43079-1.56425,2.08625-2.47592,3.25961-2.47592,3.91218,0,.78247,1.56303,3.39079,2.737,5.08486l8.86593,13.16901c4.69526,6.779,7.16996,7.95487,11.60476,8.47314l1.43314.12989c1.04347.9148,1.04347,4.04581-.39028,4.56598-5.73804-.26039-10.82237-.3915-15.77733-.3915-5.21475,0-11.34315.13111-17.34158.3915-1.17397-.52017-1.43375-3.65118-.3915-4.56598l2.87062-.51956c1.82655-.3915,2.21431-.91297,2.21431-1.43375,0-.52269-.52139-1.82655-1.56303-3.52251-1.82525-2.86872-3.5219-5.60571-5.60693-8.60303-1.82525,2.73883-3.65118,5.7356-5.34532,8.60303-1.04217,1.82525-1.56486,2.99983-1.56486,3.7829,0,.65189.52269,1.04469,2.34733,1.30325l2.08503.38967c1.04347.7843.78369,4.04581-.261,4.56598-3.77856-.26039-7.69135-.3915-11.73465-.3915-2.998,0-6.12589.13111-10.16788.3915-1.17458-.65319-1.56615-3.52129-.25978-4.56598l3.25839-.51956c2.21614-.3915,4.95504-1.30447,6.12771-2.60711,1.95644-1.95644,8.86532-10.95218,10.69057-13.6904.78178-1.30386,1.17336-2.21683,1.17336-2.86811,0-.52208-1.04095-2.34733-4.17136-6.9095l-7.04251-10.82107c-2.60459-4.04208-5.08425-5.08615-7.95113-5.73743l-2.73761-.65319c-.9148-.65319-.9148-4.17136.39089-4.56347,5.08486.261,8.60364.39219,15.7736.39219,4.69709,0,9.25995-.13111,13.9533-.39219,1.56486.52208,1.69353,3.78107.26161,4.56347l-1.56364.39089c-1.0453.13111-1.95948.52078-1.95948.91358,0,.52208.2623,1.17336,1.17519,2.73883,1.69726,2.86933,3.52312,5.34593,5.34654,7.95174,1.30325-1.82655,3.52061-4.95565,5.60693-8.08224.78117-1.17397.91419-1.69597.91419-2.34733,0-.52269-.7843-.91297-2.08816-1.17458l-1.43497-.39089c-1.17145-.78247-.91236-4.04147.39219-4.56347,3.78229.261,7.17118.39219,11.86454.39219,3.26022,0,6.6485-.13111,9.90749-.39219,1.30508.39219,1.43436,3.78107.2623,4.56347l-1.82472.26108Z"/><path class="cls-1" d="m696.50481,326.3274c.00999.01749.01997.03061.03125.0481l.04932.05431c-.02935-.03186-.05305-.0662-.08057-.10241Zm-36.39789-44.38462l-.00374.00438-27.90912,24.99421.01311.01749h-.01311v39.24164c0,19.45596,15.76857,35.22521,35.22209,35.22521,19.33735,0,35.03411-15.57564,35.22209-34.86923,3.32082,1.03409,6.84768,1.59421,10.50511,1.59421,19.45413,0,35.2246-15.76986,35.2246-35.22331,0-6.93576-2.00514-13.39944-5.46332-18.84961,18.10781-1.45997,32.35337-16.61972,32.35337-35.10965,0-18.47309-14.22185-33.62472-32.31526-35.10718,3.43569-5.43398,5.42521-11.87765,5.42521-18.78593,0-19.45097-15.77047-35.2227-35.2246-35.2227-3.65744,0-7.18429.55764-10.50511,1.59234-.15299-19.3186-15.86538-34.93109-35.22209-34.93109-19.45344,0-35.22209,15.77047-35.22209,35.22209v39.20917l.03621.03247,27.87353,24.96548.00434.00252-.00122,45.9975h0Zm28.67779-110.2072c0,4.10576-1.15895,7.94363-3.16783,11.19889l-6.09776,6.41311-7.39719,7.77627h-26.07076v-25.3864c0-11.79834,9.56219-21.36677,21.36491-21.36677,11.8002-.00126,21.36864,9.56718,21.36864,21.36491Zm-14.82252,108.59989v-42.73294h66.07234c11.80081,0,21.36864,9.56657,21.36864,21.36555,0,11.79959-9.56653,21.36742-21.36864,21.36742h-66.07234v-.00004Zm-27.90981,40.48055h26.07198l7.40032,7.77627,6.09029,6.40747c2.012,3.25465,3.17096,7.09122,3.17096,11.20137,0,11.80211-9.56844,21.36613-21.36803,21.36613-11.80211,0-21.36552-9.5628-21.36552-21.36613v-25.3851h0Zm21.14827-26.62341h56.22354c6.60794,3.63117,11.08832,10.65997,11.08832,18.73474,0,11.79959-9.56722,21.36677-21.36994,21.36677-5.50205,0-10.51761-2.08068-14.30425-5.49892l-.00999-.01124c-.80305-.72187-1.55365-1.50929-2.23741-2.35041l-.00747-.0056-.04871-.0537-7.85494-8.25833-10.25532-10.78486-.05183-.05683-.30475-.31722h-25.12532l14.25806-12.7644Zm-14.20249-83.21475h25.06975l.2966-.3091.0593-.06495,10.2541-10.78361,7.86622-8.2677.55577-.58637.00686-.00374c.3559-.40713.73437-.79992,1.11901-1.17458v-.00252c3.84846-3.75981,9.11512-6.07714,14.92123-6.07714,11.8002,0,21.36803,9.56783,21.36803,21.36868,0,8.02793-4.42793,15.02052-10.97284,18.66854h-56.28536l-14.25867-12.76752Zm-20.80418-.03247v.03186h.03621l-.03621-.03186Zm0,0v.03186h.03621l-.03621-.03186Zm64.90905-19.98303l1.1184-1.17645c-.38464.37404-.76181.76932-1.1184,1.17645Zm-.51201,135.47244c.68375.84112,1.43314,1.62607,2.23741,2.3498l-2.23741-2.3498Zm-36.48722-90.49146h.00434v1.65854h-.00434v-1.65854Zm0,44.39213v1.6117l.00434-.00438v-1.60732h-.00434Zm-106.2813,46.09435l.05058-.05431c.01063-.01749.02249-.03061.03373-.0481-.03061.03621-.05683.07055-.08431.10241Zm36.47907-90.4846l.00313-.00187,27.87356-24.96548.03747-.03186v-39.21042c0-19.45222-15.76861-35.2227-35.22396-35.2227-19.35667,0-35.06598,15.61249-35.22144,34.93231-3.31834-1.03535-6.84771-1.5936-10.5045-1.5936-19.45283,0-35.22396,15.76986-35.22396,35.22396,0,6.90702,1.99013,13.35134,5.42334,18.78593-18.09028,1.48181-32.31213,16.63408-32.31213,35.10653,0,18.48868,14.24308,33.64972,32.35211,35.1103-3.45757,5.4477-5.46267,11.91264-5.46267,18.84961,0,19.45344,15.77108,35.22209,35.22396,35.22209,3.65679,0,7.1849-.55889,10.5045-1.59299.18919,19.29299,15.88538,34.86923,35.22144,34.86923,19.45535,0,35.22396-15.76925,35.22396-35.22521v-39.24229h-.01311l.01311-.01685-27.90977-24.99547-.00313-.00438-.00191-45.99685h0Zm-7.31041-85.57579c11.80211,0,21.36677,9.56783,21.36677,21.36616v25.38701h-26.07328l-7.39723-7.77627-6.09589-6.41372c-2.01071-3.25526-3.16722-7.09126-3.16722-11.19763.00008-11.79712,9.56726-21.36555,21.36685-21.36555Zm-72.61534,129.96605c-11.80085,0-21.36864-9.56718-21.36864-21.36742,0-11.79959,9.56718-21.36616,21.36864-21.36616h66.06926v42.73358h-66.06926Zm93.98212,65.86626c0,11.80211-9.56405,21.36681-21.36868,21.36681-11.79898,0-21.36491-9.56341-21.36491-21.36681,0-4.10954,1.15712-7.9474,3.16909-11.20137l6.09151-6.40621,7.39971-7.77753h26.07328v25.3851h0Zm-6.8933-39.24225h-25.1241l-.30411.31661-.05244.05683-10.25532,10.78486-7.85494,8.25833-.05058.05431-.00625.00499c-.6844.84112-1.43375,1.62733-2.23676,2.35041l-.00812.00938c-3.78976,3.42014-8.80537,5.50075-14.30863,5.50075-11.8002,0-21.36555-9.56657-21.36555-21.36677,0-8.07287,4.47981-15.10357,11.08459-18.73535h56.22541l14.2568,12.76565Zm-14.31111-83.21475h-56.28414c-6.54361-3.64867-10.97158-10.64186-10.97158-18.66854,0-11.79959,9.56596-21.36868,21.36742-21.36868,5.8055,0,11.07026,2.31672,14.92058,6.07714v.00252c.38841.37218.76181.76745,1.12027,1.17458l.00499.00374.55577.58637,7.86431,8.2677,10.25284,10.78361.06182.06434.29599.30971h25.06789l-14.25615,12.76752Zm35.06094-12.79935v.03186h-.03686l.03686-.03186Zm0,0v.03186h-.03686l.03686-.03186Zm-64.90901-19.98303l-1.12213-1.17645c.38841.37404.76307.76932,1.12213,1.17645Zm.51141,135.47244c-.68314.84112-1.43375,1.62607-2.23676,2.3498l2.23676-2.3498Zm36.48471-90.49146h.00313v1.65854h-.00313v-1.65854Zm.00313,44.39213v1.6117l-.00313-.00438v-1.60732h.00313Z"/></g></g></svg>