<?xml version="1.0" encoding="UTF-8"?>
<svg id="Layer_1" data-name="Layer 1" xmlns="http://www.w3.org/2000/svg" viewBox="0 0 48 48">
  <defs>
    <style>
      .cls-1 {
        fill: none;
      }
    </style>
  </defs>
  <g id="m48-customer-support-1">
    <g>
      <path d="M41.34588,22.80851l-1.99976-4h-1.80047c-1.17712-6.25119-6.66968-10.99817-13.25842-10.99817s-12.0813,4.74698-13.2583,10.99817h-1.80078l-2,4,2,4h2.55908v-5.16291c0-6.15806,4.31325-11.66174,10.38962-12.66148,7.82055-1.28671,14.61038,4.74095,14.61038,12.32457v9.77618l-5.37964,5.37939-.32788-.65576h-4.60156l-.75,1.5,.75,1.5h4.60156l.60193-1.2041,6.10559-6.10547v-4.69043h1.55889l1.99976-4Zm-30.55865,3h-.94076l-1.49976-3,1.49976-3h.94076v6Zm19.5573,12h-3.36523l-.25-.5,.25-.5h3.36523l.25,.5-.25,.5Zm7.4427-12v-6h.94076l1.49976,3-1.49976,3h-.94076Zm-1.91292-3.28921c0-6.45361-5.25049-11.7041-11.7041-11.7041s-11.7041,5.25049-11.7041,11.7041,5.25049,11.7041,11.7041,11.7041,11.7041-5.25049,11.7041-11.7041Zm-11.7041,10.7041c-5.90234,0-10.7041-4.80176-10.7041-10.7041s4.80176-10.7041,10.7041-10.7041,10.7041,4.80176,10.7041,10.7041-4.80176,10.7041-10.7041,10.7041Zm5.57251-5.41489h1.26611c-1.58374,2.15771-4.1167,3.5-6.83862,3.5-2.72241,0-5.25537-1.34229-6.83887-3.5h1.26611c1.40332,1.55957,3.42529,2.5,5.57275,2.5,2.14697,0,4.16907-.94043,5.57251-2.5Z"/>
      <rect class="cls-1" width="48" height="48"/>
    </g>
  </g>
</svg>